<svg width="149" height="31" viewBox="0 0 149 31" fill="none" xmlns="http://www.w3.org/2000/svg">
<path d="M0.531016 9.9659C1.75471 8.41206 4.40321 9.8725 6.10561 9.67154C6.98939 9.67154 8.31789 9.42248 9.54158 9.12812C12.4648 8.32432 15.949 8.84226 18.385 10.7159C22.2374 13.5293 22.5235 18.6182 22.5291 22.9995C22.5575 24.208 22.6594 25.3996 22.7586 26.56C22.8662 28.0176 22.988 29.5517 21.5859 30.2253C20.3933 30.8027 18.5833 30.6102 17.8666 29.4469C17.116 28.0091 17.6372 25.6005 17.4757 23.2372C17.0848 17.5823 17.8638 13.2547 13.1277 11.0103C10.5698 10.0508 7.36896 11.3471 6.04329 13.7019C5.09153 15.4935 5.09153 17.6728 5.04055 19.6852C5.03488 22.0796 4.98389 23.9731 5.17651 25.9685C5.21617 27.2053 5.65806 28.6573 4.85926 29.696C3.78853 30.8253 1.61024 30.8168 0.497024 29.7554C-0.1998 28.9375 0.0183114 28.0431 0.0862943 26.9166C0.205264 25.7817 0.304406 24.3552 0.295908 22.7561C0.278912 20.2399 0.344063 17.4521 0.253419 14.9925C0.264749 13.0141 -0.43774 11.5877 0.488526 10.0282L0.536681 9.9659H0.531016Z" fill="#6461AB"/>
<path d="M25.8263 19.5181C25.8207 11.7149 33.0778 7.3449 40.3605 8.95251C50.2917 10.7837 52.0875 24.7796 43.1081 29.1723C35.4997 32.7413 25.8122 28.5835 25.8235 19.5917V19.5181H25.8263ZM30.0809 19.603C30.0809 19.62 30.0809 19.6369 30.0809 19.6539V19.736C30.1121 22.0795 30.7636 25.0259 32.4405 26.7495C34.0154 28.3684 36.2504 28.8128 38.4315 28.5128C43.4282 27.8307 44.6434 22.6682 44.2525 18.4142C44.1647 17.4717 43.9919 16.5377 43.6917 15.6405C42.89 13.2461 40.9157 10.7866 38.2389 10.5177C36.0861 10.3026 33.922 10.7554 32.3952 12.3772C30.6814 14.1971 30.0668 17.1661 30.0809 19.603Z" fill="#6461AB"/>
<path d="M48.5581 9.39394C49.3003 8.40333 51.504 8.55617 52.7561 8.60429C54.0137 8.7458 55.6963 9.00053 55.9456 10.4298C56.141 11.9412 56.0844 13.1073 56.7755 14.9442C57.7358 17.5481 58.4808 18.884 59.4949 21.4822C59.9736 22.6851 60.4098 23.7946 60.778 24.672C61.2822 25.8692 61.6618 26.622 62.0159 26.7494C62.3983 26.8994 62.7722 26.3192 63.2764 25.1644C64.7947 21.3747 66.6387 16.9113 68.0324 12.9743C68.1627 12.5526 68.2618 12.1478 68.3383 11.7318C68.4686 10.9902 68.5507 10.3053 69.0635 9.72792C69.7999 8.89581 70.899 8.59013 71.9754 8.73448C72.4966 8.80241 73.1821 8.95241 73.0348 9.62037C72.7572 10.8742 71.1171 11.5506 70.5421 12.6545C69.3722 14.2649 68.6046 16.5433 67.446 19.4019C66.4659 21.8303 65.5312 24.338 64.5086 26.7296C63.0328 30.3015 59.8404 31.5977 57.3902 28.9089C56.6056 28.057 56.0674 26.7834 55.4442 25.1871C53.9769 21.5982 52.2688 16.8065 50.7052 13.4073C50.0481 11.9129 48.187 9.9968 48.5525 9.41659L48.5609 9.39394H48.5581Z" fill="#6461AB"/>
<path d="M72.25 19.4332C72.233 11.6895 79.748 7.32229 86.8918 8.85915C88.7047 9.13652 90.5403 10.0564 91.9537 11.2055C92.9083 11.9782 93.8006 13.065 93.9706 14.3188C94.3133 16.8463 91.4127 18.035 89.6111 19.0002C88.1184 19.7983 86.6086 20.5681 85.0875 21.3125C84.1272 21.7824 83.1669 22.306 82.1755 22.7022C80.9263 23.2852 78.5668 24.1683 78.4648 25.8155C78.4563 25.9542 78.4705 26.0873 78.4988 26.2203C78.5923 26.6335 78.918 26.959 79.2778 27.1826C82.5438 29.2261 87.1269 28.6459 90.325 26.7637C91.3617 26.1524 92.3248 25.3967 93.1802 24.774C93.8006 24.3013 94.1292 25.391 93.4635 26.2061C87.1581 33.9102 72.2302 30.4941 72.25 19.5096V19.436V19.4332ZM76.7907 19.5549C76.7992 19.7389 76.8134 19.9228 76.8332 20.104C76.9012 20.7408 77.1816 21.4512 77.9096 21.4795C79.3854 21.5389 80.9008 20.8087 82.2492 20.2568C84.2037 19.4558 86.1554 18.4964 87.9257 17.3416C88.9766 16.6567 89.8944 15.6151 89.8972 14.299C89.8972 12.9405 89.0645 11.7121 87.9456 10.9932C86.9485 10.3536 85.7503 10.079 84.5663 10.0083C82.0509 9.85825 80.1615 10.9281 78.7282 12.9574C77.3884 14.8566 76.6774 17.2312 76.7907 19.5549Z" fill="#6461AB"/>
<path d="M97.5114 9.99692C99.0268 8.2959 101.978 10.1582 103.95 9.82427C106.692 9.52426 109.411 8.77423 112.34 9.06292C113.921 9.21859 118.997 10.9705 117.453 13.215C116.181 15.066 112.842 11.8055 111.861 11.5508C109.216 10.3224 105.63 10.9111 103.856 13.0989C101.794 15.7057 102.57 19.6256 102.412 23.0022C102.398 24.6947 102.539 26.2231 102.678 27.3864C102.749 28.3232 102.896 29.0308 102.383 29.7383C101.233 30.9639 98.5481 30.9412 97.3782 29.7638C96.7664 28.9827 97.0751 27.9269 97.1488 26.9618C97.2791 25.8976 97.3471 24.7117 97.3471 23.5966C97.3272 20.6927 97.4122 17.3755 97.2933 14.4716C97.2876 12.7055 96.5794 11.4291 97.4604 10.0592L97.5114 9.99692Z" fill="#6461AB"/>
<path d="M125.588 8.86196C129.027 8.14023 132.919 8.7063 135.63 10.9904C139.307 13.9678 139.315 19.3143 139.349 23.7777C139.267 25.6514 140.38 29.0902 138.604 30.1629C137.281 30.8507 135.726 29.3874 134.605 28.8779C132.911 28.0402 131.525 29.3789 129.421 29.8544C126.554 30.6072 122.914 30.3525 120.626 28.3147C118.031 25.9655 119.368 22.1899 121.946 20.4351C124.688 17.9671 133.341 17.3472 132.707 12.8895C132.537 11.6979 131.582 10.7583 130.46 10.3988C127.73 9.52426 125.798 11.8027 123.543 12.8385C122.756 13.2008 121.679 13.5376 121.011 12.7735C119.391 10.9168 123.892 9.21858 125.588 8.85913V8.86196ZM133.327 17.9218C133.14 17.7152 132.888 17.5793 132.554 17.5538C132.197 17.5284 131.843 17.6246 131.506 17.7378C129.443 18.4228 127.26 19.6539 125.665 21.1427C124.671 22.071 123.86 23.3362 123.911 24.7428C123.962 26.1438 124.843 27.409 126.129 27.9666C128.557 29.0223 131.863 27.2731 133.01 25.057C133.942 23.2569 134.114 20.9672 133.783 18.9945C133.715 18.5954 133.582 18.1963 133.333 17.9218H133.327Z" fill="#6461AB"/>
<path d="M82.81 7.14978L90.1579 3.15904C92.7214 1.82879 90.3052 -1.57041 88.1354 0.843846L82.5155 6.75637C82.269 7.0026 82.5155 7.29979 82.81 7.14978Z" fill="#6461AB"/>
<path d="M143.53 7.0966H142.253V10.7902H141.434V7.0966H140.156V6.31826H143.53V7.0966Z" fill="#6461AB"/>
<path d="M146.227 10.7902L145.043 7.4787V10.7902H144.21V6.31827H145.425L146.609 9.64105L147.765 6.31827H149V10.7902H148.173V7.4787L146.983 10.7902H146.224H146.227Z" fill="#6461AB"/>
</svg>
